<?xml version="1.0" encoding="utf-8"?><!-- Uploaded to: SVG Repo, www.svgrepo.com, Generator: SVG Repo Mixer Tools -->
<svg width="35px" height="35px" viewBox="0 0 24 24" fill="none" xmlns="http://www.w3.org/2000/svg">
<path d="M11 18.75C10.9015 18.7505 10.8038 18.7313 10.7128 18.6935C10.6218 18.6557 10.5393 18.6001 10.47 18.53L4.47001 12.53C4.32956 12.3894 4.25067 12.1988 4.25067 12C4.25067 11.8013 4.32956 11.6107 4.47001 11.47L10.47 5.47003C10.6122 5.33755 10.8002 5.26543 10.9945 5.26885C11.1888 5.27228 11.3742 5.35099 11.5116 5.48841C11.649 5.62582 11.7278 5.81121 11.7312 6.00551C11.7346 6.19981 11.6625 6.38785 11.53 6.53003L6.06001 12L11.53 17.47C11.6705 17.6107 11.7494 17.8013 11.7494 18C11.7494 18.1988 11.6705 18.3894 11.53 18.53C11.4608 18.6001 11.3782 18.6557 11.2872 18.6935C11.1962 18.7313 11.0986 18.7505 11 18.75Z" fill="#1F5460"/>
<path d="M19 12.75H5C4.80109 12.75 4.61032 12.671 4.46967 12.5303C4.32902 12.3897 4.25 12.1989 4.25 12C4.25 11.8011 4.32902 11.6103 4.46967 11.4697C4.61032 11.329 4.80109 11.25 5 11.25H19C19.1989 11.25 19.3897 11.329 19.5303 11.4697C19.671 11.6103 19.75 11.8011 19.75 12C19.75 12.1989 19.671 12.3897 19.5303 12.5303C19.3897 12.671 19.1989 12.75 19 12.75Z" fill="#1F5460"/>
</svg>